<svg xmlns="http://www.w3.org/2000/svg" xmlns:xlink="http://www.w3.org/1999/xlink" viewBox="21 101 303 173" preserveAspectRatio="xMinYMid meet" version="1.0"><defs><g/><clipPath id="1f6f897b0c"><path d="M 222 48 L 302.761719 48 L 302.761719 142 L 222 142 Z M 222 48 " clip-rule="nonzero"/></clipPath><clipPath id="fe12b0c56e"><rect x="0" width="303" y="0" height="173"/></clipPath><clipPath id="46c75017b5"><path d="M 327.59375 225.46875 L 347.40625 225.46875 L 347.40625 245.28125 L 327.59375 245.28125 Z M 327.59375 225.46875 " clip-rule="nonzero"/></clipPath><clipPath id="fd3aea950c"><path d="M 337.5 225.46875 C 332.027344 225.46875 327.59375 229.902344 327.59375 235.375 C 327.59375 240.84375 332.027344 245.28125 337.5 245.28125 C 342.972656 245.28125 347.40625 240.84375 347.40625 235.375 C 347.40625 229.902344 342.972656 225.46875 337.5 225.46875 Z M 337.5 225.46875 " clip-rule="nonzero"/></clipPath><clipPath id="aae9f883b3"><path d="M 0.59375 0.46875 L 20.40625 0.46875 L 20.40625 20.28125 L 0.59375 20.28125 Z M 0.59375 0.46875 " clip-rule="nonzero"/></clipPath><clipPath id="f99e55ead3"><path d="M 10.5 0.46875 C 5.027344 0.46875 0.59375 4.902344 0.59375 10.375 C 0.59375 15.84375 5.027344 20.28125 10.5 20.28125 C 15.972656 20.28125 20.40625 15.84375 20.40625 10.375 C 20.40625 4.902344 15.972656 0.46875 10.5 0.46875 Z M 10.5 0.46875 " clip-rule="nonzero"/></clipPath><clipPath id="33b4198cba"><rect x="0" width="21" y="0" height="21"/></clipPath></defs><g transform="matrix(1, 0, 0, 1, 21, 101)"><g clip-path="url(#fe12b0c56e)"><g clip-path="url(#1f6f897b0c)"><g fill="#006666" fill-opacity="1"><g transform="translate(217.13071, 139.473139)"><g><path d="M 5.421875 -91.375 C 7.222656 -91.289062 9.585938 -91.203125 12.515625 -91.109375 C 15.441406 -91.023438 18.328125 -90.984375 21.171875 -90.984375 C 25.210938 -90.984375 29.082031 -91.023438 32.78125 -91.109375 C 36.476562 -91.203125 39.101562 -91.25 40.65625 -91.25 C 47.625 -91.25 53.410156 -90.257812 58.015625 -88.28125 C 62.617188 -86.300781 66.0625 -83.609375 68.34375 -80.203125 C 70.625 -76.804688 71.765625 -73.003906 71.765625 -68.796875 C 71.765625 -66.210938 71.242188 -63.457031 70.203125 -60.53125 C 69.171875 -57.601562 67.382812 -54.847656 64.84375 -52.265625 C 62.3125 -49.679688 58.847656 -47.550781 54.453125 -45.875 C 50.066406 -44.195312 44.519531 -43.359375 37.8125 -43.359375 L 25.421875 -43.359375 L 25.421875 -45.953125 L 36.53125 -45.953125 C 42.632812 -45.953125 47.300781 -46.914062 50.53125 -48.84375 C 53.757812 -50.78125 55.953125 -53.363281 57.109375 -56.59375 C 58.273438 -59.820312 58.859375 -63.414062 58.859375 -67.375 C 58.859375 -74.164062 57.242188 -79.429688 54.015625 -83.171875 C 50.785156 -86.921875 45.253906 -88.796875 37.421875 -88.796875 C 33.460938 -88.796875 30.878906 -88.0625 29.671875 -86.59375 C 28.472656 -85.132812 27.875 -82.171875 27.875 -77.703125 L 27.875 -13.6875 C 27.875 -10.582031 28.128906 -8.253906 28.640625 -6.703125 C 29.160156 -5.160156 30.171875 -4.128906 31.671875 -3.609375 C 33.179688 -3.097656 35.398438 -2.753906 38.328125 -2.578125 L 38.328125 0 C 36.347656 -0.175781 33.875 -0.285156 30.90625 -0.328125 C 27.9375 -0.367188 24.945312 -0.390625 21.9375 -0.390625 C 18.582031 -0.390625 15.441406 -0.367188 12.515625 -0.328125 C 9.585938 -0.285156 7.222656 -0.175781 5.421875 0 L 5.421875 -2.578125 C 8.347656 -2.753906 10.5625 -3.097656 12.0625 -3.609375 C 13.570312 -4.128906 14.582031 -5.160156 15.09375 -6.703125 C 15.613281 -8.253906 15.875 -10.582031 15.875 -13.6875 L 15.875 -77.703125 C 15.875 -80.878906 15.613281 -83.21875 15.09375 -84.71875 C 14.582031 -86.226562 13.570312 -87.265625 12.0625 -87.828125 C 10.5625 -88.390625 8.347656 -88.710938 5.421875 -88.796875 Z M 25.9375 -45.5625 C 30.582031 -45.382812 34.238281 -45.1875 36.90625 -44.96875 C 39.570312 -44.757812 41.742188 -44.566406 43.421875 -44.390625 C 45.109375 -44.222656 46.722656 -44.007812 48.265625 -43.75 C 54.035156 -42.800781 58.1875 -41.054688 60.71875 -38.515625 C 63.257812 -35.984375 65.132812 -32.050781 66.34375 -26.71875 L 69.5625 -13.546875 C 70.425781 -9.765625 71.304688 -7.035156 72.203125 -5.359375 C 73.109375 -3.679688 74.507812 -2.882812 76.40625 -2.96875 C 77.863281 -3.050781 79.085938 -3.519531 80.078125 -4.375 C 81.066406 -5.238281 82.125 -6.40625 83.25 -7.875 L 85.1875 -6.453125 C 83.375 -3.785156 81.5 -1.738281 79.5625 -0.3125 C 77.625 1.101562 74.894531 1.8125 71.375 1.8125 C 68.1875 1.8125 65.390625 0.863281 62.984375 -1.03125 C 60.578125 -2.925781 58.769531 -6.625 57.5625 -12.125 L 54.71875 -25.03125 C 53.945312 -28.738281 53.066406 -31.945312 52.078125 -34.65625 C 51.085938 -37.363281 49.707031 -39.488281 47.9375 -41.03125 C 46.175781 -42.582031 43.578125 -43.359375 40.140625 -43.359375 L 26.203125 -43.359375 Z M 25.9375 -45.5625 "/></g></g></g></g><g fill="#006666" fill-opacity="1"><g transform="translate(64.00417, 139.473139)"><g><path d="M 76.40625 -91.375 C 76.0625 -88.101562 75.820312 -84.941406 75.6875 -81.890625 C 75.5625 -78.835938 75.5 -76.492188 75.5 -74.859375 C 75.5 -72.796875 75.539062 -70.859375 75.625 -69.046875 C 75.71875 -67.242188 75.804688 -65.648438 75.890625 -64.265625 L 72.921875 -64.265625 C 72.316406 -70.296875 71.5 -75.050781 70.46875 -78.53125 C 69.4375 -82.019531 67.628906 -84.535156 65.046875 -86.078125 C 62.460938 -87.628906 58.460938 -88.40625 53.046875 -88.40625 L 46.078125 -88.40625 L 46.078125 -14.96875 C 46.078125 -11.53125 46.398438 -8.945312 47.046875 -7.21875 C 47.691406 -5.5 48.957031 -4.335938 50.84375 -3.734375 C 52.738281 -3.140625 55.492188 -2.753906 59.109375 -2.578125 L 59.109375 0 C 56.867188 -0.175781 54.03125 -0.285156 50.59375 -0.328125 C 47.15625 -0.367188 43.671875 -0.390625 40.140625 -0.390625 C 36.265625 -0.390625 32.628906 -0.367188 29.234375 -0.328125 C 25.835938 -0.285156 23.101562 -0.175781 21.03125 0 L 21.03125 -2.578125 C 24.644531 -2.753906 27.398438 -3.140625 29.296875 -3.734375 C 31.191406 -4.335938 32.460938 -5.5 33.109375 -7.21875 C 33.753906 -8.945312 34.078125 -11.53125 34.078125 -14.96875 L 34.078125 -88.40625 L 27.109375 -88.40625 C 21.765625 -88.40625 17.78125 -87.628906 15.15625 -86.078125 C 12.539062 -84.535156 10.710938 -82.019531 9.671875 -78.53125 C 8.640625 -75.050781 7.828125 -70.296875 7.234375 -64.265625 L 4.265625 -64.265625 C 4.429688 -65.648438 4.535156 -67.242188 4.578125 -69.046875 C 4.617188 -70.859375 4.640625 -72.796875 4.640625 -74.859375 C 4.640625 -76.492188 4.578125 -78.835938 4.453125 -81.890625 C 4.328125 -84.941406 4.09375 -88.101562 3.75 -91.375 C 7.351562 -91.289062 11.285156 -91.203125 15.546875 -91.109375 C 19.804688 -91.023438 24.085938 -90.984375 28.390625 -90.984375 C 32.691406 -90.984375 36.609375 -90.984375 40.140625 -90.984375 C 43.671875 -90.984375 47.5625 -90.984375 51.8125 -90.984375 C 56.070312 -90.984375 60.351562 -91.023438 64.65625 -91.109375 C 68.957031 -91.203125 72.875 -91.289062 76.40625 -91.375 Z M 76.40625 -91.375 "/></g></g></g><g fill="#006666" fill-opacity="1"><g transform="translate(140.535151, 139.473139)"><g><path d="M 75.890625 -91.375 L 75.890625 -88.796875 C 74.253906 -88.453125 72.617188 -87.394531 70.984375 -85.625 C 69.347656 -83.863281 67.539062 -81.09375 65.5625 -77.3125 L 39.5 -25.6875 L 37.296875 -25.6875 L 7.09375 -81.4375 C 5.375 -84.625 3.929688 -86.625 2.765625 -87.4375 C 1.609375 -88.257812 0.554688 -88.671875 -0.390625 -88.671875 L -0.390625 -91.375 C 1.328125 -91.289062 3.113281 -91.203125 4.96875 -91.109375 C 6.820312 -91.023438 8.820312 -90.984375 10.96875 -90.984375 C 13.8125 -90.984375 16.84375 -91.003906 20.0625 -91.046875 C 23.289062 -91.097656 26.28125 -91.207031 29.03125 -91.375 L 29.03125 -88.671875 C 26.882812 -88.671875 24.992188 -88.410156 23.359375 -87.890625 C 21.722656 -87.367188 20.644531 -86.421875 20.125 -85.046875 C 19.613281 -83.671875 20.003906 -81.738281 21.296875 -79.25 L 43.109375 -37.421875 L 42.078125 -36.65625 L 59.234375 -70.859375 C 61.648438 -75.585938 62.832031 -79.242188 62.78125 -81.828125 C 62.738281 -84.410156 61.726562 -86.195312 59.75 -87.1875 C 57.769531 -88.175781 54.972656 -88.710938 51.359375 -88.796875 L 51.359375 -91.375 C 53.859375 -91.289062 56.398438 -91.203125 58.984375 -91.109375 C 61.566406 -91.023438 63.972656 -90.984375 66.203125 -90.984375 C 68.441406 -90.984375 70.289062 -91.023438 71.75 -91.109375 C 73.21875 -91.203125 74.597656 -91.289062 75.890625 -91.375 Z M 45.296875 -39.234375 L 45.296875 -13.6875 C 45.296875 -10.582031 45.550781 -8.253906 46.0625 -6.703125 C 46.582031 -5.160156 47.59375 -4.128906 49.09375 -3.609375 C 50.601562 -3.097656 52.820312 -2.753906 55.75 -2.578125 L 55.75 0 C 53.769531 -0.175781 51.296875 -0.285156 48.328125 -0.328125 C 45.359375 -0.367188 42.367188 -0.390625 39.359375 -0.390625 C 36.003906 -0.390625 32.863281 -0.367188 29.9375 -0.328125 C 27.007812 -0.285156 24.644531 -0.175781 22.84375 0 L 22.84375 -2.578125 C 25.769531 -2.753906 27.984375 -3.097656 29.484375 -3.609375 C 30.992188 -4.128906 32.003906 -5.160156 32.515625 -6.703125 C 33.035156 -8.253906 33.296875 -10.582031 33.296875 -13.6875 L 33.296875 -40.140625 L 40.265625 -32.140625 Z M 45.296875 -39.234375 "/></g></g></g><g fill="#006666" fill-opacity="1"><g transform="translate(0.497537, 139.473139)"><g><path d="M 33.046875 -92.796875 C 37.347656 -92.796875 40.613281 -92.300781 42.84375 -91.3125 C 45.082031 -90.320312 47.0625 -89.222656 48.78125 -88.015625 C 49.8125 -87.410156 50.648438 -86.957031 51.296875 -86.65625 C 51.941406 -86.363281 52.566406 -86.21875 53.171875 -86.21875 C 54.035156 -86.21875 54.660156 -86.6875 55.046875 -87.625 C 55.429688 -88.570312 55.753906 -89.992188 56.015625 -91.890625 L 58.984375 -91.890625 C 58.898438 -90.429688 58.789062 -88.6875 58.65625 -86.65625 C 58.53125 -84.632812 58.445312 -81.96875 58.40625 -78.65625 C 58.363281 -75.34375 58.34375 -70.976562 58.34375 -65.5625 L 55.375 -65.5625 C 55.113281 -69.695312 54.207031 -73.65625 52.65625 -77.4375 C 51.101562 -81.21875 48.84375 -84.3125 45.875 -86.71875 C 42.90625 -89.132812 39.015625 -90.34375 34.203125 -90.34375 C 29.640625 -90.34375 25.875 -88.960938 22.90625 -86.203125 C 19.9375 -83.453125 18.453125 -79.84375 18.453125 -75.375 C 18.453125 -71.5 19.441406 -68.25 21.421875 -65.625 C 23.398438 -63 26.046875 -60.632812 29.359375 -58.53125 C 32.671875 -56.425781 36.265625 -54.164062 40.140625 -51.75 C 44.609375 -49 48.582031 -46.269531 52.0625 -43.5625 C 55.550781 -40.851562 58.304688 -37.863281 60.328125 -34.59375 C 62.359375 -31.320312 63.375 -27.363281 63.375 -22.71875 C 63.375 -17.207031 62.125 -12.644531 59.625 -9.03125 C 57.132812 -5.414062 53.820312 -2.703125 49.6875 -0.890625 C 45.5625 0.910156 41.003906 1.8125 36.015625 1.8125 C 31.453125 1.8125 27.835938 1.289062 25.171875 0.25 C 22.503906 -0.777344 20.222656 -1.851562 18.328125 -2.96875 C 16.429688 -4.175781 14.96875 -4.78125 13.9375 -4.78125 C 13.070312 -4.78125 12.445312 -4.304688 12.0625 -3.359375 C 11.675781 -2.410156 11.351562 -0.988281 11.09375 0.90625 L 8.125 0.90625 C 8.300781 -0.902344 8.410156 -3.035156 8.453125 -5.484375 C 8.492188 -7.929688 8.535156 -11.132812 8.578125 -15.09375 C 8.617188 -19.050781 8.640625 -24.046875 8.640625 -30.078125 L 11.609375 -30.078125 C 11.953125 -24.910156 12.921875 -20.085938 14.515625 -15.609375 C 16.109375 -11.140625 18.5625 -7.550781 21.875 -4.84375 C 25.1875 -2.132812 29.597656 -0.78125 35.109375 -0.78125 C 37.941406 -0.78125 40.628906 -1.359375 43.171875 -2.515625 C 45.710938 -3.679688 47.800781 -5.53125 49.4375 -8.0625 C 51.070312 -10.601562 51.890625 -13.894531 51.890625 -17.9375 C 51.890625 -21.46875 51.046875 -24.546875 49.359375 -27.171875 C 47.679688 -29.796875 45.335938 -32.242188 42.328125 -34.515625 C 39.316406 -36.796875 35.789062 -39.144531 31.75 -41.5625 C 27.707031 -44.050781 23.921875 -46.585938 20.390625 -49.171875 C 16.859375 -51.753906 14.039062 -54.742188 11.9375 -58.140625 C 9.832031 -61.535156 8.78125 -65.644531 8.78125 -70.46875 C 8.78125 -75.539062 9.914062 -79.734375 12.1875 -83.046875 C 14.46875 -86.359375 17.457031 -88.8125 21.15625 -90.40625 C 24.863281 -92 28.828125 -92.796875 33.046875 -92.796875 Z M 33.046875 -92.796875 "/></g></g></g></g></g><g clip-path="url(#46c75017b5)"><g clip-path="url(#fd3aea950c)"><g transform="matrix(1, 0, 0, 1, 327, 225)"><g clip-path="url(#33b4198cba)"><g clip-path="url(#aae9f883b3)"><g clip-path="url(#f99e55ead3)"><path fill="#006666" d="M 0.59375 0.46875 L 20.40625 0.46875 L 20.40625 20.28125 L 0.59375 20.28125 Z M 0.59375 0.46875 " fill-opacity="1" fill-rule="nonzero"/></g></g></g></g></g></g></svg>
