<svg xmlns="http://www.w3.org/2000/svg" xmlns:xlink="http://www.w3.org/1999/xlink" width="500" zoomAndPan="magnify" viewBox="0 0 375 374.999991" height="500" preserveAspectRatio="xMidYMid meet" version="1.0"><defs><g/><clipPath id="74d788bba4"><path d="M 239.855469 284.859375 L 272.050781 284.859375 L 272.050781 317.058594 L 239.855469 317.058594 Z M 239.855469 284.859375 " clip-rule="nonzero"/></clipPath><clipPath id="ec261d3d18"><path d="M 255.953125 284.859375 C 247.0625 284.859375 239.855469 292.070312 239.855469 300.960938 C 239.855469 309.851562 247.0625 317.058594 255.953125 317.058594 C 264.84375 317.058594 272.050781 309.851562 272.050781 300.960938 C 272.050781 292.070312 264.84375 284.859375 255.953125 284.859375 Z M 255.953125 284.859375 " clip-rule="nonzero"/></clipPath><clipPath id="380d737e29"><path d="M 0.855469 0.859375 L 33.050781 0.859375 L 33.050781 33.058594 L 0.855469 33.058594 Z M 0.855469 0.859375 " clip-rule="nonzero"/></clipPath><clipPath id="f027971c42"><path d="M 16.953125 0.859375 C 8.0625 0.859375 0.855469 8.070312 0.855469 16.960938 C 0.855469 25.851562 8.0625 33.058594 16.953125 33.058594 C 25.84375 33.058594 33.050781 25.851562 33.050781 16.960938 C 33.050781 8.070312 25.84375 0.859375 16.953125 0.859375 Z M 16.953125 0.859375 " clip-rule="nonzero"/></clipPath><clipPath id="e15b805004"><rect x="0" width="34" y="0" height="34"/></clipPath></defs><rect x="-37.5" width="450" fill="#ffffff" y="-37.499999" height="449.999989" fill-opacity="1"/><rect x="-37.5" width="450" fill="#ffffff" y="-37.499999" height="449.999989" fill-opacity="1"/><g clip-path="url(#74d788bba4)"><g clip-path="url(#ec261d3d18)"><g transform="matrix(1, 0, 0, 1, 239, 284)"><g clip-path="url(#e15b805004)"><g clip-path="url(#380d737e29)"><g clip-path="url(#f027971c42)"><path fill="#ffffff" d="M 0.855469 0.859375 L 33.050781 0.859375 L 33.050781 33.058594 L 0.855469 33.058594 Z M 0.855469 0.859375 " fill-opacity="1" fill-rule="nonzero"/></g></g></g></g></g></g><g fill="#ffffff" fill-opacity="1"><g transform="translate(83.642987, 301.909689)"><g><path d="M 83.203125 -233.671875 C 94.035156 -233.671875 102.265625 -232.425781 107.890625 -229.9375 C 113.523438 -227.445312 118.507812 -224.6875 122.84375 -221.65625 C 125.445312 -220.132812 127.5625 -218.992188 129.1875 -218.234375 C 130.8125 -217.472656 132.382812 -217.09375 133.90625 -217.09375 C 136.070312 -217.09375 137.640625 -218.285156 138.609375 -220.671875 C 139.585938 -223.054688 140.398438 -226.632812 141.046875 -231.40625 L 148.53125 -231.40625 C 148.3125 -227.71875 148.035156 -223.328125 147.703125 -218.234375 C 147.378906 -213.140625 147.164062 -206.421875 147.0625 -198.078125 C 146.957031 -189.742188 146.90625 -178.75 146.90625 -165.09375 L 139.421875 -165.09375 C 138.773438 -175.5 136.5 -185.46875 132.59375 -195 C 128.695312 -204.53125 123.007812 -212.328125 115.53125 -218.390625 C 108.0625 -224.460938 98.257812 -227.5 86.125 -227.5 C 74.644531 -227.5 65.164062 -224.03125 57.6875 -217.09375 C 50.207031 -210.164062 46.46875 -201.066406 46.46875 -189.796875 C 46.46875 -180.046875 48.957031 -171.863281 53.9375 -165.25 C 58.925781 -158.644531 65.59375 -152.6875 73.9375 -147.375 C 82.28125 -142.070312 91.328125 -136.390625 101.078125 -130.328125 C 112.335938 -123.390625 122.351562 -116.507812 131.125 -109.6875 C 139.90625 -102.863281 146.84375 -95.332031 151.9375 -87.09375 C 157.03125 -78.863281 159.578125 -68.898438 159.578125 -57.203125 C 159.578125 -43.335938 156.429688 -31.851562 150.140625 -22.75 C 143.859375 -13.644531 135.519531 -6.816406 125.125 -2.265625 C 114.726562 2.273438 103.242188 4.546875 90.671875 4.546875 C 79.191406 4.546875 70.09375 3.242188 63.375 0.640625 C 56.65625 -1.949219 50.914062 -4.65625 46.15625 -7.46875 C 41.382812 -10.507812 37.695312 -12.03125 35.09375 -12.03125 C 32.925781 -12.03125 31.351562 -10.835938 30.375 -8.453125 C 29.40625 -6.066406 28.597656 -2.488281 27.953125 2.28125 L 20.46875 2.28125 C 20.90625 -2.269531 21.175781 -7.632812 21.28125 -13.8125 C 21.394531 -19.988281 21.503906 -28.054688 21.609375 -38.015625 C 21.722656 -47.984375 21.78125 -60.550781 21.78125 -75.71875 L 29.25 -75.71875 C 30.113281 -62.71875 32.550781 -50.582031 36.5625 -39.3125 C 40.570312 -28.050781 46.742188 -19.007812 55.078125 -12.1875 C 63.421875 -5.363281 74.53125 -1.953125 88.40625 -1.953125 C 95.550781 -1.953125 102.316406 -3.410156 108.703125 -6.328125 C 115.097656 -9.253906 120.351562 -13.914062 124.46875 -20.3125 C 128.59375 -26.707031 130.65625 -34.992188 130.65625 -45.171875 C 130.65625 -54.054688 128.539062 -61.800781 124.3125 -68.40625 C 120.082031 -75.019531 114.175781 -81.195312 106.59375 -86.9375 C 99.007812 -92.675781 90.128906 -98.582031 79.953125 -104.65625 C 69.765625 -110.9375 60.226562 -117.328125 51.34375 -123.828125 C 42.46875 -130.328125 35.375 -137.851562 30.0625 -146.40625 C 24.75 -154.96875 22.09375 -165.316406 22.09375 -177.453125 C 22.09375 -190.234375 24.960938 -200.796875 30.703125 -209.140625 C 36.453125 -217.484375 43.984375 -223.65625 53.296875 -227.65625 C 62.617188 -231.664062 72.585938 -233.671875 83.203125 -233.671875 Z M 83.203125 -233.671875 "/></g></g></g></svg>